<?xml version="1.0" standalone="no"?>
<!DOCTYPE svg PUBLIC "-//W3C//DTD SVG 20010904//EN"
 "http://www.w3.org/TR/2001/REC-SVG-20010904/DTD/svg10.dtd">
<svg version="1.0" xmlns="http://www.w3.org/2000/svg"
 width="186.000000pt" height="150.000000pt" viewBox="0 0 186.000000 150.000000"
 preserveAspectRatio="xMidYMid meet">
<metadata>
Created by potrace 1.16, written by Peter Selinger 2001-2019
</metadata>
<g transform="translate(0.000000,150.000000) scale(0.100000,-0.100000)"
fill="#000000" stroke="none">
<path d="M1353 1450 c-12 -5 -25 -16 -30 -25 -6 -10 -29 -18 -64 -22 -351 -36
-788 -322 -930 -608 -75 -152 -74 -243 5 -321 121 -122 406 -91 712 76 172 95
260 207 287 365 22 127 -26 282 -118 380 -24 27 -43 50 -41 52 2 2 33 7 69 11
63 8 66 7 76 -15 19 -42 92 -53 122 -17 16 19 23 18 59 -12 46 -39 60 -75 61
-154 1 -58 -4 -81 -30 -135 -16 -36 -28 -65 -25 -65 11 0 64 127 75 179 19 90
-14 178 -81 218 -16 9 -34 30 -41 45 -20 50 -58 67 -106 48z m-148 -162 c84
-94 118 -183 117 -313 -1 -83 -21 -155 -61 -221 -16 -26 -23 -30 -54 -26 -29
3 -44 -3 -86 -36 -52 -41 -151 -85 -179 -80 -9 2 28 35 86 77 56 41 102 76
102 78 0 2 -28 3 -62 3 l-63 -1 -59 -79 c-33 -44 -63 -80 -67 -80 -5 0 -36 36
-69 80 l-61 80 -66 0 -66 0 104 -76 c57 -42 106 -78 109 -81 3 -3 -13 -2 -34
1 -51 10 -126 47 -169 86 -28 24 -44 30 -81 30 -25 0 -46 -4 -46 -8 0 -18 118
-121 168 -146 94 -48 227 -65 317 -41 17 5 18 5 3 -5 -9 -6 -59 -19 -110 -30
-289 -60 -461 -3 -473 157 -9 111 63 241 212 384 96 93 179 151 291 205 74 37
218 93 239 94 6 0 32 -23 58 -52z"/>
<path d="M839 1020 c-20 -17 -48 -45 -62 -64 l-26 -34 64 -21 c63 -22 64 -22
119 -3 31 11 59 22 63 26 6 6 -105 126 -117 126 -3 -1 -21 -14 -41 -30z"/>
<path d="M835 1443 c-57 -8 -140 -35 -184 -60 -86 -50 -175 -151 -196 -223 -7
-21 -2 -19 41 19 70 62 236 170 331 215 45 22 80 43 77 48 -5 8 -15 8 -69 1z"/>
<path d="M310 228 c0 -51 4 -98 8 -104 24 -37 106 -45 143 -15 22 17 24 29 27
115 l4 96 -31 0 -31 0 0 -85 c0 -70 -3 -87 -16 -92 -36 -14 -49 10 -52 96 -3
79 -4 81 -27 81 -25 0 -25 -1 -25 -92z"/>
<path d="M590 295 c0 -22 4 -25 35 -25 l35 0 0 -85 c0 -84 0 -85 25 -85 25 0
25 1 25 85 l0 85 30 0 c25 0 30 4 30 25 0 25 -1 25 -90 25 -89 0 -90 0 -90
-25z"/>
<path d="M890 210 l0 -110 25 0 c23 0 25 4 25 45 l0 45 40 0 40 0 0 -45 c0
-41 2 -45 25 -45 l25 0 0 110 0 110 -25 0 c-22 0 -25 -4 -25 -40 l0 -40 -40 0
-40 0 0 40 c0 36 -2 40 -25 40 l-25 0 0 -110z"/>
<path d="M1129 291 c-24 -24 -29 -38 -29 -76 0 -80 39 -125 109 -125 33 0 76
31 84 60 8 31 -39 40 -60 11 -36 -52 -95 7 -73 73 6 19 18 37 26 40 17 7 50
-8 56 -25 2 -6 14 -8 30 -4 19 5 24 11 21 26 -8 30 -43 49 -91 49 -35 0 -49
-6 -73 -29z"/>
<path d="M1320 210 l0 -110 25 0 c24 0 25 3 26 63 l1 62 16 -62 c14 -58 18
-63 43 -63 24 0 28 5 42 58 l15 57 1 -57 c1 -55 2 -58 26 -58 l25 0 0 110 0
110 -38 0 c-39 0 -39 0 -51 -55 -7 -30 -16 -53 -21 -50 -4 3 -13 27 -20 55
-12 49 -12 50 -51 50 l-39 0 0 -110z"/>
</g>
</svg>
